<?xml version="1.0" encoding="UTF-8" standalone="no"?>
<!-- Created with Inkscape (http://www.inkscape.org/) -->

<svg
   width="12.262624mm"
   height="12.264077mm"
   viewBox="0 0 12.262624 12.264077"
   version="1.1"
   id="svg1"
   xml:space="preserve"
   inkscape:version="1.4 (86a8ad7, 2024-10-11)"
   sodipodi:docname="danver.svg"
   xmlns:inkscape="http://www.inkscape.org/namespaces/inkscape"
   xmlns:sodipodi="http://sodipodi.sourceforge.net/DTD/sodipodi-0.dtd"
   xmlns:xlink="http://www.w3.org/1999/xlink"
   xmlns="http://www.w3.org/2000/svg"
   xmlns:svg="http://www.w3.org/2000/svg"><sodipodi:namedview
     id="namedview1"
     pagecolor="#505050"
     bordercolor="#ffffff"
     borderopacity="1"
     inkscape:showpageshadow="0"
     inkscape:pageopacity="0"
     inkscape:pagecheckerboard="1"
     inkscape:deskcolor="#505050"
     inkscape:document-units="mm"
     inkscape:zoom="0.83279305"
     inkscape:cx="-2047.3274"
     inkscape:cy="991.24266"
     inkscape:window-width="1920"
     inkscape:window-height="991"
     inkscape:window-x="-9"
     inkscape:window-y="-9"
     inkscape:window-maximized="1"
     inkscape:current-layer="layer7"><inkscape:page
       x="0"
       y="0"
       width="12.262624"
       height="12.264077"
       id="page2"
       margin="0"
       bleed="0" /></sodipodi:namedview><defs
     id="defs1"><linearGradient
       id="linearGradient27"
       inkscape:collect="always"><stop
         style="stop-color:#e4e4e5;stop-opacity:1;"
         offset="0.40890124"
         id="stop27" /><stop
         style="stop-color:#545e69;stop-opacity:1;"
         offset="0.9207232"
         id="stop28" /></linearGradient><linearGradient
       inkscape:collect="always"
       xlink:href="#linearGradient27"
       id="linearGradient28"
       x1="60.807304"
       y1="189.8044"
       x2="163.63454"
       y2="-63.98288"
       gradientUnits="userSpaceOnUse"
       gradientTransform="matrix(0.93861568,0,0,0.44320616,-220.52451,-25.793634)" /></defs><g
     inkscape:groupmode="layer"
     id="layer2"
     inkscape:label="fondo"
     transform="translate(566.29796,-384.80042)"><g
       id="g6"
       transform="matrix(1.0775434,0,0,1.3217262,-488.84865,-34.389432)"><rect
         style="fill:#ececec;fill-opacity:1;stroke-width:6.68294;stroke-linecap:round;paint-order:markers stroke fill"
         id="rect26"
         width="199.61514"
         height="525.54315"
         x="-219.90028"
         y="-13.576654"
         inkscape:label="FONDO" /><rect
         style="display:none;fill:url(#linearGradient28);stroke:none;stroke-width:0.773976;stroke-linecap:square;stroke-dasharray:none;stroke-opacity:1;paint-order:markers stroke fill"
         id="rect27"
         width="200.17938"
         height="42.986885"
         x="-219.75949"
         y="-13.270843"
         transform="matrix(1,0,-0.0109749,0.99993977,0,0)"
         inkscape:label="DEGRADADO" /></g></g><g
     inkscape:groupmode="layer"
     id="layer7"
     inkscape:label="por q elegirnos"
     transform="translate(566.29796,-384.80042)"><g
       id="g30"
       style="fill:#5c91d7;fill-opacity:1"
       transform="matrix(0.20219114,0,0,0.20219114,-569.65713,312.05028)"><path
         d="m 65.22362,359.80896 c -0.560395,-0.009 -1.124103,0.19742 -1.560124,0.6201 l -3.872009,3.7535 c -0.872039,0.84536 -0.89321,2.22788 -0.04784,3.09992 l 9.878286,10.19006 c 0.845363,0.87203 2.228196,0.89383 3.100234,0.0485 l 3.871697,-3.75349 c 0.872044,-0.84537 0.89352,-2.2282 0.04817,-3.10024 l -9.878297,-10.19005 c -0.422682,-0.43603 -0.979715,-0.65957 -1.54011,-0.66827 z"
         style="opacity:1;fill:#5c91d7;fill-opacity:1;stroke-width:2.23901;stroke-linecap:square;stroke-linejoin:round;paint-order:markers fill stroke"
         id="path30" /><path
         d="m 23.703801,417.51135 -5.307045,-4.95212 -1.649565,4.99027 c -0.454324,1.37431 0.288499,2.12189 1.665511,1.67582 z"
         style="opacity:1;fill:#5c91d7;fill-opacity:1;stroke-width:2.43207;stroke-linecap:square;stroke-linejoin:round;paint-order:markers fill stroke"
         id="path29" /><path
         d="m 29.201917,363.85015 c -0.98121,-0.0239 -1.971631,0.32837 -2.741866,1.06197 l -7.697423,7.33124 c -1.540471,1.46719 -1.59949,3.88822 -0.132277,5.42869 l 0.759894,0.79804 1.004429,1.05447 3.199682,3.35947 1.004429,1.05479 3.544912,3.7219 1.004435,1.05447 2.056398,2.15897 -8.298147,8.04391 -0.729867,2.20807 -3.041136,9.19907 6.893445,6.43281 8.602416,-2.78659 2.31814,-0.75082 6.861856,-6.65233 1.217079,-1.17987 1.788404,1.87784 1.004433,1.05447 3.848244,4.04025 1.004434,1.05447 3.461417,3.63434 1.004434,1.05478 1.109505,1.16486 c 1.467203,1.54047 3.888532,1.59947 5.429006,0.13228 l 7.697428,-7.33125 c 1.540458,-1.4672 1.599181,-3.88853 0.131962,-5.429 L 58.175387,392.64349 69.031214,382.12007 c 0.872038,-0.84536 0.893829,-2.22819 0.04847,-3.10023 L 58.180077,367.77657 c -0.422682,-0.43602 -0.979805,-0.65933 -1.54011,-0.66796 -0.560305,-0.009 -1.123792,0.19743 -1.559812,0.62011 l -10.72855,10.40052 -12.462859,-13.08516 c -0.733601,-0.77023 -1.705619,-1.17004 -2.686829,-1.19393 z m -0.01785,2.6149 c 0.920981,0.0224 1.833508,0.39786 2.522026,1.12076 l 11.29175,11.85557 -4.912718,4.76261 -5.379916,5.21512 -2.043575,-2.14553 2.49701,-2.37818 c 0.292148,-0.27824 0.303294,-0.73731 0.02499,-1.02945 -0.278248,-0.29215 -0.737298,-0.30323 -1.029445,-0.025 l -2.497016,2.37818 -3.544912,-3.72191 1.051969,-1.00193 c 0.292135,-0.27824 0.303245,-0.73761 0.02499,-1.02977 -0.278248,-0.29214 -0.737619,-0.30316 -1.029767,-0.025 l -1.051962,1.00194 -3.199367,-3.35948 4.04338,-3.85074 c 0.292148,-0.27824 0.303149,-0.73762 0.02499,-1.02976 -0.27826,-0.29215 -0.737317,-0.30329 -1.029452,-0.025 l -4.003351,3.8126 c -0.9642,-1.43246 -0.787609,-3.38081 0.506596,-4.61346 v -3.1e-4 l 5.160383,-4.91459 c 0.722908,-0.68851 1.652337,-1.01906 2.573318,-0.99662 z m 27.612228,2.61991 c 0.415241,0.006 0.827918,0.17197 1.141089,0.49502 l 9.307894,9.60185 c 0.62634,0.6461 0.610455,1.67053 -0.03564,2.29687 l -10.226018,9.91331 -1.353734,1.31214 -10.292629,9.97805 -0.354616,0.34366 -1.146093,1.11107 -7.424111,7.19678 c -0.646104,0.62634 -1.670221,0.61014 -2.296561,-0.036 l -9.308211,-9.60153 c -0.62634,-0.6461 -0.610455,-1.67054 0.03564,-2.29688 l 7.529189,-7.29872 3.34821,-3.24595 6.018472,-5.8346 2.426651,-2.35222 1.353734,-1.31246 10.120636,-9.81105 c 0.323052,-0.31317 0.740858,-0.46581 1.1561,-0.45938 z m 0.02565,24.87067 12.068212,12.67112 c 1.377042,1.44579 1.321962,3.7183 -0.123835,5.09535 l -5.160386,4.9149 c -1.39515,1.32881 -3.557946,1.31984 -4.94524,0.0188 l 4.426762,-4.21631 c 0.292149,-0.27825 0.303531,-0.73732 0.02533,-1.02945 -0.278241,-0.29215 -0.737308,-0.30329 -1.029451,-0.025 l -4.434579,4.2235 -3.461419,-3.63435 1.114196,-1.06135 c 0.292143,-0.27825 0.303339,-0.73761 0.02502,-1.02976 -0.278235,-0.29214 -0.737301,-0.30327 -1.029451,-0.025 l -1.114196,1.06135 -3.848243,-4.04026 2.479812,-2.3616 c 0.292138,-0.27824 0.303587,-0.73764 0.02533,-1.02977 -0.278238,-0.29215 -0.737628,-0.30317 -1.029762,-0.025 l -2.479813,2.36192 -1.801226,-1.89097 z"
         style="opacity:1;fill:#5c91d7;fill-opacity:1;stroke-width:1.70933;stroke-linecap:square;stroke-linejoin:round;paint-order:markers fill stroke"
         id="path28" /></g></g></svg>
