<?xml version="1.0" encoding="UTF-8" standalone="no"?>
<!-- Created with Inkscape (http://www.inkscape.org/) -->

<svg
   width="11.907736mm"
   height="10.084041mm"
   viewBox="0 0 11.907736 10.084041"
   version="1.1"
   id="svg1"
   xml:space="preserve"
   inkscape:version="1.4 (86a8ad7, 2024-10-11)"
   sodipodi:docname="danver.svg"
   xmlns:inkscape="http://www.inkscape.org/namespaces/inkscape"
   xmlns:sodipodi="http://sodipodi.sourceforge.net/DTD/sodipodi-0.dtd"
   xmlns:xlink="http://www.w3.org/1999/xlink"
   xmlns="http://www.w3.org/2000/svg"
   xmlns:svg="http://www.w3.org/2000/svg"><sodipodi:namedview
     id="namedview1"
     pagecolor="#505050"
     bordercolor="#ffffff"
     borderopacity="1"
     inkscape:showpageshadow="0"
     inkscape:pageopacity="0"
     inkscape:pagecheckerboard="1"
     inkscape:deskcolor="#505050"
     inkscape:document-units="mm"
     inkscape:zoom="0.83279305"
     inkscape:cx="-2047.3274"
     inkscape:cy="991.24266"
     inkscape:window-width="1920"
     inkscape:window-height="991"
     inkscape:window-x="-9"
     inkscape:window-y="-9"
     inkscape:window-maximized="1"
     inkscape:current-layer="layer7"><inkscape:page
       x="0"
       y="-3.7370077e-12"
       width="11.907736"
       height="10.084042"
       id="page2"
       margin="0"
       bleed="0" /></sodipodi:namedview><defs
     id="defs1"><linearGradient
       id="linearGradient27"
       inkscape:collect="always"><stop
         style="stop-color:#e4e4e5;stop-opacity:1;"
         offset="0.40890124"
         id="stop27" /><stop
         style="stop-color:#545e69;stop-opacity:1;"
         offset="0.9207232"
         id="stop28" /></linearGradient><linearGradient
       inkscape:collect="always"
       xlink:href="#linearGradient27"
       id="linearGradient28"
       x1="60.807304"
       y1="189.8044"
       x2="163.63454"
       y2="-63.98288"
       gradientUnits="userSpaceOnUse"
       gradientTransform="matrix(0.93861568,0,0,0.44320616,-220.52451,-25.793634)" /></defs><g
     inkscape:groupmode="layer"
     id="layer2"
     inkscape:label="fondo"
     transform="translate(668.3521,-386.91277)"><g
       id="g6"
       transform="matrix(1.0775434,0,0,1.3217262,-488.84865,-34.389432)"><rect
         style="fill:#ececec;fill-opacity:1;stroke-width:6.68294;stroke-linecap:round;paint-order:markers stroke fill"
         id="rect26"
         width="199.61514"
         height="525.54315"
         x="-219.90028"
         y="-13.576654"
         inkscape:label="FONDO" /><rect
         style="display:none;fill:url(#linearGradient28);stroke:none;stroke-width:0.773976;stroke-linecap:square;stroke-dasharray:none;stroke-opacity:1;paint-order:markers stroke fill"
         id="rect27"
         width="200.17938"
         height="42.986885"
         x="-219.75949"
         y="-13.270843"
         transform="matrix(1,0,-0.0109749,0.99993977,0,0)"
         inkscape:label="DEGRADADO" /></g></g><g
     inkscape:groupmode="layer"
     id="layer7"
     inkscape:label="por q elegirnos"
     transform="translate(668.3521,-386.91277)"><path
       d="m -663.33563,386.9129 c -2.7705,0 -5.01643,1.8485 -5.01644,4.12874 0.003,0.76055 0.25986,1.50578 0.74418,2.1535 l -0.6014,2.2711 c -0.0158,0.0598 0.0191,0.0934 0.0782,0.0752 l 2.59539,-0.7964 c 0.59499,0.24135 1.24135,0.3825 1.90141,0.41683 0.70275,0.91867 1.90367,1.52439 3.26765,1.52439 0.59668,-0.003 1.18499,-0.12198 1.72018,-0.35133 l 2.02936,0.65789 c 0.0463,0.0149 0.0735,-0.0127 0.0611,-0.0622 l -0.47023,-1.87614 c 0.37867,-0.53507 0.58005,-1.15068 0.58188,-1.77896 -10e-6,-1.25866 -0.78468,-2.3573 -1.95128,-2.94834 -0.41131,-1.93956 -2.46574,-3.41436 -4.94004,-3.41436 z m -0.0411,0.72575 c 1.80908,1e-5 3.34222,0.96925 3.8772,2.31093 -0.27909,-0.0548 -0.56902,-0.0847 -0.86717,-0.0847 -2.16624,0 -3.92231,1.52703 -3.92231,3.4107 0,0.35546 0.0627,0.69814 0.1787,1.02033 -0.41062,-0.0615 -0.80736,-0.17435 -1.17636,-0.33482 l -1.10816,0.34007 -0.7591,0.23293 c -0.0481,0.0147 -0.0766,-0.0125 -0.0637,-0.0612 l 0.17439,-0.65861 0.26036,-0.98323 c -0.21602,-0.26982 -0.3836,-0.56387 -0.49755,-0.87308 -0.11533,-0.31144 -0.17501,-0.63503 -0.17721,-0.96061 2e-5,-1.85496 1.82707,-3.3587 4.08086,-3.3587 z m 3.04211,2.82578 c 0.35365,0 0.69274,0.052 1.01069,0.14444 0.36882,0.10716 0.70822,0.26986 1.00324,0.47895 0.71783,0.50877 1.17683,1.28311 1.17683,2.15119 -0.002,0.26895 -0.0484,0.53625 -0.13854,0.79353 -0.0891,0.25544 -0.22016,0.49837 -0.38904,0.72126 l 0.20357,0.81223 0.13635,0.54406 c 0.01,0.0402 -0.0121,0.0628 -0.0498,0.0506 l -0.59355,-0.19242 -0.86645,-0.28093 c -0.28863,0.1326 -0.59893,0.22593 -0.92011,0.27668 -0.18898,0.0315 -0.38083,0.0481 -0.57324,0.0497 -0.91946,-10e-6 -1.74568,-0.34016 -2.32793,-0.88128 -0.24478,-0.22748 -0.44682,-0.48961 -0.59298,-0.77877 -0.1725,-0.34131 -0.26988,-0.71783 -0.26988,-1.11456 10e-6,-1.53236 1.42858,-2.77456 3.19079,-2.77456 z"
       style="fill:#5c91d7;fill-opacity:1;stroke-width:0.159773;stroke-linecap:square;stroke-linejoin:round;paint-order:markers fill stroke"
       id="path89-2" /></g></svg>
